<svg version="1" xmlns="http://www.w3.org/2000/svg" width="460" height="460" viewBox="0 0 345.000000 345.000000"><path d="M93.3 93L14 171.8l78.6 78.4c43.2 43 79 78.5 79.6 78.7.9.3 157.8-155.7 157.8-156.9-.1-1-7-7.9-82-82.7l-75.5-75.1L93.3 93zm32.6 37.8c6.5 3.2 7.6 5.9 7.9 19.3l.4 11.9H170v-22h-25v-11h62v11h-25V163.3l9.8-.6c5.3-.4 14.3-.7 20-.7H222v-33h12v32.3l11.9-.6c6.6-.4 20.5-1.6 31.1-2.8 10.5-1.1 19.4-1.9 19.7-1.6.2.3-.3 1.9-1.1 3.6-3.2 6.1-9.4 7.7-39.6 10l-21.5 1.6-.3 16.3-.2 16.2h40v11h-52v-42.6l-7.2.7c-4 .4-13 .8-20 .8l-12.8.1v41h-12v-40h-36v14.2c0 16.2-1 19.6-6.9 23.5-3.3 2.2-4.2 2.3-24.6 2.3-20.4 0-21.3-.1-24.6-2.3-5.9-3.9-6.9-7.3-6.9-24V174h12v13c0 17.7-.8 17 19.5 17 20.2 0 19.5.6 19.5-16.5V175h-6v-13h6.2l-.4-9.5c-.2-6-.8-9.9-1.6-10.7-1.9-1.9-33.5-1.9-35.4 0-.8.8-1.4 4.7-1.6 10.2l-.4 9h30.1l-.6 7.2c-.3 4-.7 7.5-.9 7.7-.8.9-1.6-.9-2.1-4.8-.4-3.1-1-4.1-2.4-4.1-1.2 0-1.9.7-1.9 1.9 0 1.1-.5 2.3-1 2.6-1.5.9-4-1.4-4-3.6 0-3-2.5-2.2-3.7 1.2-1.1 2.7-1.5 3-2.8 1.9-.8-.7-1.5-2.1-1.5-3.1 0-2.8-3.8-2.5-4.2.3-.2 1.3-1 2.3-1.8 2.3s-1.9-1-2.5-2.3c-1.3-2.9-2.9-2.8-4.3.3-1.5 3.3-3.1 3.2-4.5-.5s-3.3-3.9-4.1-.4c-.8 3.1-4 2.9-4.4-.4-.5-3-3.9-3-4.4 0-.4 3.2-3 2.9-4.6-.5-1.7-3.5-2.5-3.4-3.9.4-1.1 2.7-1.5 3-2.8 1.9-.8-.7-1.5-2.1-1.5-3.1 0-1.1-.4-1.9-1-1.9-.5 0-1-.8-1-1.9 0-2.6 3-3.2 14.2-2.4l9.6.6.4-11.1c.2-9.3.6-11.5 2.4-13.9 4.2-5.7 6.9-6.3 28.9-6.3 17.1 0 20.5.3 23.4 1.8z"/></svg>